# Blender v3.4.1 OBJ File: '21.blend'
# www.blender.org
mtllib desk_planks.mtl
o Cube.011_Mesh_14
v -0.299754 0.050717 0.262945
v -0.299754 0.069642 0.262945
v -0.085423 0.069642 0.263028
v -0.299754 0.050717 0.262945
v -0.085423 0.069642 0.263028
v -0.085423 0.050717 0.263028
v -0.085423 0.050717 0.263028
v -0.085423 0.069642 0.263028
v -0.085484 0.069642 0.422892
v -0.085423 0.050717 0.263028
v -0.085484 0.069642 0.422892
v -0.085484 0.050717 0.422892
v -0.085484 0.050717 0.422892
v -0.085484 0.069642 0.422892
v -0.299816 0.069642 0.422809
v -0.085484 0.050717 0.422892
v -0.299816 0.069642 0.422809
v -0.299816 0.050717 0.422809
v -0.299816 0.050717 0.422809
v -0.299816 0.069642 0.422809
v -0.299754 0.069642 0.262945
v -0.299816 0.050717 0.422809
v -0.299754 0.069642 0.262945
v -0.299754 0.050717 0.262945
v -0.085423 0.050717 0.263028
v -0.085484 0.050717 0.422892
v -0.299816 0.050717 0.422809
v -0.085423 0.050717 0.263028
v -0.299816 0.050717 0.422809
v -0.299754 0.050717 0.262945
v -0.085484 0.069642 0.422892
v -0.085423 0.069642 0.263028
v -0.299754 0.069642 0.262945
v -0.085484 0.069642 0.422892
v -0.299754 0.069642 0.262945
v -0.299816 0.069642 0.422809
v -0.299754 0.192249 0.262945
v -0.299754 0.211173 0.262945
v -0.085423 0.211173 0.263028
v -0.299754 0.192249 0.262945
v -0.085423 0.211173 0.263028
v -0.085423 0.192249 0.263028
v -0.085423 0.192249 0.263028
v -0.085423 0.211173 0.263028
v -0.085484 0.211173 0.422892
v -0.085423 0.192249 0.263028
v -0.085484 0.211173 0.422892
v -0.085484 0.192249 0.422892
v -0.085484 0.192249 0.422892
v -0.085484 0.211173 0.422892
v -0.299816 0.211173 0.422809
v -0.085484 0.192249 0.422892
v -0.299816 0.211173 0.422809
v -0.299816 0.192249 0.422809
v -0.299816 0.192249 0.422809
v -0.299816 0.211173 0.422809
v -0.299754 0.211173 0.262945
v -0.299816 0.192249 0.422809
v -0.299754 0.211173 0.262945
v -0.299754 0.192249 0.262945
v -0.085423 0.192249 0.263028
v -0.085484 0.192249 0.422892
v -0.299816 0.192249 0.422809
v -0.085423 0.192249 0.263028
v -0.299816 0.192249 0.422809
v -0.299754 0.192249 0.262945
v -0.085484 0.211173 0.422892
v -0.085423 0.211173 0.263028
v -0.299754 0.211173 0.262945
v -0.085484 0.211173 0.422892
v -0.299754 0.211173 0.262945
v -0.299816 0.211173 0.422809
v -0.300473 0.286732 -0.469870
v -0.083043 0.286732 -0.469787
v -0.083043 0.261969 -0.469787
v -0.300473 0.286732 -0.469870
v -0.083043 0.261969 -0.469787
v -0.300473 0.261969 -0.469870
v -0.083123 0.286732 -0.262281
v -0.083387 0.286732 0.425483
v -0.083387 0.261969 0.425483
v -0.083123 0.286732 -0.262281
v -0.083387 0.261969 0.425483
v -0.083123 0.261969 -0.262281
v -0.083387 0.286732 0.425483
v -0.300817 0.286732 0.425399
v -0.300817 0.261969 0.425399
v -0.083387 0.286732 0.425483
v -0.300817 0.261969 0.425399
v -0.083387 0.261969 0.425483
v -0.300553 0.286732 -0.262365
v -0.300473 0.286732 -0.469870
v -0.300473 0.261969 -0.469870
v -0.300553 0.286732 -0.262365
v -0.300473 0.261969 -0.469870
v -0.300553 0.261969 -0.262365
v -0.083123 0.286732 -0.262281
v -0.300553 0.286732 -0.262365
v -0.300817 0.286732 0.425399
v -0.083123 0.286732 -0.262281
v -0.300817 0.286732 0.425399
v -0.083387 0.286732 0.425483
v -0.083123 0.261969 -0.262281
v -0.300553 0.261969 -0.262365
v -0.300473 0.261969 -0.469870
v -0.083123 0.261969 -0.262281
v -0.300473 0.261969 -0.469870
v -0.083043 0.261969 -0.469787
v -0.083387 0.261969 0.425483
v -0.300817 0.261969 0.425399
v -0.300553 0.261969 -0.262365
v -0.083387 0.261969 0.425483
v -0.300553 0.261969 -0.262365
v -0.083123 0.261969 -0.262281
v -0.083043 0.286732 -0.469787
v -0.300473 0.286732 -0.469870
v -0.300553 0.286732 -0.262365
v -0.083043 0.286732 -0.469787
v -0.300553 0.286732 -0.262365
v -0.083123 0.286732 -0.262281
v -0.300817 0.286732 0.425399
v -0.300553 0.286732 -0.262365
v -0.300553 0.261969 -0.262365
v -0.300817 0.286732 0.425399
v -0.300553 0.261969 -0.262365
v -0.300817 0.261969 0.425399
v -0.083123 0.261969 -0.262281
v 0.379523 0.261969 -0.262104
v 0.379523 0.286732 -0.262104
v -0.083123 0.261969 -0.262281
v 0.379523 0.286732 -0.262104
v -0.083123 0.286732 -0.262281
v 0.379603 0.286732 -0.469609
v 0.379523 0.286732 -0.262104
v 0.379523 0.261969 -0.262104
v 0.379603 0.286732 -0.469609
v 0.379523 0.261969 -0.262104
v 0.379603 0.261969 -0.469609
v -0.083123 0.286732 -0.262281
v 0.379523 0.286732 -0.262104
v 0.379603 0.286732 -0.469609
v -0.083123 0.286732 -0.262281
v 0.379603 0.286732 -0.469609
v -0.083043 0.286732 -0.469787
v -0.083043 0.261969 -0.469787
v 0.379603 0.261969 -0.469609
v 0.379523 0.261969 -0.262104
v -0.083043 0.261969 -0.469787
v 0.379523 0.261969 -0.262104
v -0.083123 0.261969 -0.262281
v -0.083043 0.286732 -0.469787
v 0.379603 0.286732 -0.469609
v 0.379603 0.261969 -0.469609
v -0.083043 0.286732 -0.469787
v 0.379603 0.261969 -0.469609
v -0.083043 0.261969 -0.469787
v -0.300473 0.682944 -0.469870
v -0.083043 0.682944 -0.469787
v -0.083043 0.658181 -0.469787
v -0.300473 0.682944 -0.469870
v -0.083043 0.658181 -0.469787
v -0.300473 0.658181 -0.469870
v -0.300553 0.682944 -0.262365
v -0.300473 0.682944 -0.469870
v -0.300473 0.658181 -0.469870
v -0.300553 0.682944 -0.262365
v -0.300473 0.658181 -0.469870
v -0.300553 0.658181 -0.262365
v -0.083123 0.658181 -0.262281
v -0.300553 0.658181 -0.262365
v -0.300473 0.658181 -0.469870
v -0.083123 0.658181 -0.262281
v -0.300473 0.658181 -0.469870
v -0.083043 0.658181 -0.469787
v -0.083043 0.682944 -0.469787
v -0.300473 0.682944 -0.469870
v -0.300553 0.682944 -0.262365
v -0.083043 0.682944 -0.469787
v -0.300553 0.682944 -0.262365
v -0.083123 0.682944 -0.262281
v -0.083123 0.658181 -0.262281
v 0.379523 0.658181 -0.262104
v 0.379523 0.682944 -0.262104
v -0.083123 0.658181 -0.262281
v 0.379523 0.682944 -0.262104
v -0.083123 0.682944 -0.262281
v 0.379603 0.682944 -0.469609
v 0.379523 0.682944 -0.262104
v 0.379523 0.658181 -0.262104
v 0.379603 0.682944 -0.469609
v 0.379523 0.658181 -0.262104
v 0.379603 0.658181 -0.469609
v -0.083123 0.682944 -0.262281
v 0.379523 0.682944 -0.262104
v 0.379603 0.682944 -0.469609
v -0.083123 0.682944 -0.262281
v 0.379603 0.682944 -0.469609
v -0.083043 0.682944 -0.469787
v -0.083043 0.658181 -0.469787
v 0.379603 0.658181 -0.469609
v 0.379523 0.658181 -0.262104
v -0.083043 0.658181 -0.469787
v 0.379523 0.658181 -0.262104
v -0.083123 0.658181 -0.262281
v -0.083043 0.682944 -0.469787
v 0.379603 0.682944 -0.469609
v 0.379603 0.658181 -0.469609
v -0.083043 0.682944 -0.469787
v 0.379603 0.658181 -0.469609
v -0.083043 0.658181 -0.469787
v -0.300553 0.658181 -0.262365
v -0.083123 0.682944 -0.262281
v -0.300553 0.682944 -0.262365
v -0.300553 0.658181 -0.262365
v -0.083123 0.658181 -0.262281
v -0.083123 0.682944 -0.262281
v -0.090490 0.524270 -0.470935
v -0.090490 0.567533 -0.470935
v -0.076185 0.567533 -0.470930
v -0.090490 0.524270 -0.470935
v -0.076185 0.567533 -0.470930
v -0.076185 0.524270 -0.470930
v -0.090569 0.512766 -0.262284
v -0.090490 0.512766 -0.469790
v -0.076185 0.512766 -0.469784
v -0.090569 0.512766 -0.262284
v -0.076185 0.512766 -0.469784
v -0.076264 0.512766 -0.262279
v -0.076264 0.567533 -0.263424
v -0.076264 0.524270 -0.263424
v -0.076185 0.524270 -0.470930
v -0.076264 0.567533 -0.263424
v -0.076185 0.524270 -0.470930
v -0.076185 0.567533 -0.470930
v -0.090490 0.567533 -0.470935
v -0.090490 0.524270 -0.470935
v -0.090569 0.524270 -0.263429
v -0.090490 0.567533 -0.470935
v -0.090569 0.524270 -0.263429
v -0.090569 0.567533 -0.263429
v -0.076264 0.567533 -0.263424
v -0.076264 0.659587 -0.263424
v -0.090569 0.659587 -0.263429
v -0.076264 0.567533 -0.263424
v -0.090569 0.659587 -0.263429
v -0.090569 0.567533 -0.263429
v -0.090490 0.675582 -0.469790
v -0.090569 0.675582 -0.262284
v -0.076264 0.675582 -0.262279
v -0.090490 0.675582 -0.469790
v -0.076264 0.675582 -0.262279
v -0.076185 0.675582 -0.469784
v -0.090569 0.567533 -0.263429
v -0.090569 0.659587 -0.263429
v -0.090490 0.659587 -0.470935
v -0.090569 0.567533 -0.263429
v -0.090490 0.659587 -0.470935
v -0.090490 0.567533 -0.470935
v -0.076185 0.567533 -0.470930
v -0.076185 0.659587 -0.470930
v -0.076264 0.659587 -0.263424
v -0.076185 0.567533 -0.470930
v -0.076264 0.659587 -0.263424
v -0.076264 0.567533 -0.263424
v -0.090490 0.567533 -0.470935
v -0.090490 0.659587 -0.470935
v -0.076185 0.659587 -0.470930
v -0.090490 0.567533 -0.470935
v -0.076185 0.659587 -0.470930
v -0.076185 0.567533 -0.470930
v -0.076264 0.524270 -0.263424
v -0.090569 0.567533 -0.263429
v -0.090569 0.524270 -0.263429
v -0.076264 0.524270 -0.263424
v -0.076264 0.567533 -0.263424
v -0.090569 0.567533 -0.263429
v 0.140227 0.526569 -0.470847
v 0.140227 0.569832 -0.470847
v 0.154532 0.569832 -0.470841
v 0.140227 0.526569 -0.470847
v 0.154532 0.569832 -0.470841
v 0.154532 0.526569 -0.470841
v 0.140147 0.515531 -0.262196
v 0.140227 0.515531 -0.469701
v 0.154532 0.515531 -0.469696
v 0.140147 0.515531 -0.262196
v 0.154532 0.515531 -0.469696
v 0.154452 0.515531 -0.262190
v 0.154452 0.569832 -0.263335
v 0.154452 0.526569 -0.263335
v 0.154532 0.526569 -0.470841
v 0.154452 0.569832 -0.263335
v 0.154532 0.526569 -0.470841
v 0.154532 0.569832 -0.470841
v 0.140227 0.569832 -0.470847
v 0.140227 0.526569 -0.470847
v 0.140147 0.526569 -0.263341
v 0.140227 0.569832 -0.470847
v 0.140147 0.526569 -0.263341
v 0.140147 0.569832 -0.263341
v 0.154452 0.569832 -0.263335
v 0.154452 0.661886 -0.263335
v 0.140147 0.661886 -0.263341
v 0.154452 0.569832 -0.263335
v 0.140147 0.661886 -0.263341
v 0.140147 0.569832 -0.263341
v 0.140227 0.678348 -0.469701
v 0.140147 0.678348 -0.262196
v 0.154452 0.678348 -0.262190
v 0.140227 0.678348 -0.469701
v 0.154452 0.678348 -0.262190
v 0.154532 0.678348 -0.469696
v 0.140147 0.569832 -0.263341
v 0.140147 0.661886 -0.263341
v 0.140227 0.661886 -0.470847
v 0.140147 0.569832 -0.263341
v 0.140227 0.661886 -0.470847
v 0.140227 0.569832 -0.470847
v 0.154532 0.569832 -0.470841
v 0.154532 0.661886 -0.470841
v 0.154452 0.661886 -0.263335
v 0.154532 0.569832 -0.470841
v 0.154452 0.661886 -0.263335
v 0.154452 0.569832 -0.263335
v 0.140227 0.569832 -0.470847
v 0.140227 0.661886 -0.470847
v 0.154532 0.661886 -0.470841
v 0.140227 0.569832 -0.470847
v 0.154532 0.661886 -0.470841
v 0.154532 0.569832 -0.470841
v 0.154452 0.526569 -0.263335
v 0.140147 0.569832 -0.263341
v 0.140147 0.526569 -0.263341
v 0.154452 0.526569 -0.263335
v 0.154452 0.569832 -0.263335
v 0.140147 0.569832 -0.263341
v -0.300473 0.534818 -0.469870
v -0.083043 0.534818 -0.469787
v -0.083043 0.510055 -0.469787
v -0.300473 0.534818 -0.469870
v -0.083043 0.510055 -0.469787
v -0.300473 0.510055 -0.469870
v -0.300553 0.534818 -0.262365
v -0.300473 0.534818 -0.469870
v -0.300473 0.510055 -0.469870
v -0.300553 0.534818 -0.262365
v -0.300473 0.510055 -0.469870
v -0.300553 0.510055 -0.262365
v -0.083123 0.510055 -0.262281
v -0.300553 0.510055 -0.262365
v -0.300473 0.510055 -0.469870
v -0.083123 0.510055 -0.262281
v -0.300473 0.510055 -0.469870
v -0.083043 0.510055 -0.469787
v -0.083043 0.534818 -0.469787
v -0.300473 0.534818 -0.469870
v -0.300553 0.534818 -0.262365
v -0.083043 0.534818 -0.469787
v -0.300553 0.534818 -0.262365
v -0.083123 0.534818 -0.262281
v -0.083123 0.510055 -0.262281
v 0.379523 0.510055 -0.262104
v 0.379523 0.534818 -0.262104
v -0.083123 0.510055 -0.262281
v 0.379523 0.534818 -0.262104
v -0.083123 0.534818 -0.262281
v 0.379603 0.534818 -0.469609
v 0.379523 0.534818 -0.262104
v 0.379523 0.510055 -0.262104
v 0.379603 0.534818 -0.469609
v 0.379523 0.510055 -0.262104
v 0.379603 0.510055 -0.469609
v -0.083123 0.534818 -0.262281
v 0.379523 0.534818 -0.262104
v 0.379603 0.534818 -0.469609
v -0.083123 0.534818 -0.262281
v 0.379603 0.534818 -0.469609
v -0.083043 0.534818 -0.469787
v -0.083043 0.510055 -0.469787
v 0.379603 0.510055 -0.469609
v 0.379523 0.510055 -0.262104
v -0.083043 0.510055 -0.469787
v 0.379523 0.510055 -0.262104
v -0.083123 0.510055 -0.262281
v -0.083043 0.534818 -0.469787
v 0.379603 0.534818 -0.469609
v 0.379603 0.510055 -0.469609
v -0.083043 0.534818 -0.469787
v 0.379603 0.510055 -0.469609
v -0.083043 0.510055 -0.469787
v -0.300553 0.510055 -0.262365
v -0.083123 0.534818 -0.262281
v -0.300553 0.534818 -0.262365
v -0.300553 0.510055 -0.262365
v -0.083123 0.510055 -0.262281
v -0.083123 0.534818 -0.262281
vt 0.287358 0.275568
vt 0.291050 0.275568
vt 0.291050 0.271875
vt 0.287358 0.275568
vt 0.291050 0.271875
vt 0.287358 0.271875
vt 0.107014 0.354202
vt 0.107014 0.355205
vt 0.098541 0.355205
vt 0.107014 0.354202
vt 0.098541 0.355205
vt 0.098541 0.354202
vt 0.112130 0.370772
vt 0.112130 0.372008
vt 0.098128 0.372008
vt 0.112130 0.370772
vt 0.098128 0.372008
vt 0.098128 0.370772
vt 0.287552 0.264251
vt 0.290741 0.264251
vt 0.290741 0.261062
vt 0.287552 0.264251
vt 0.290741 0.261062
vt 0.287552 0.261062
vt 0.268801 0.239899
vt 0.279199 0.239899
vt 0.279199 0.229501
vt 0.268801 0.239899
vt 0.279199 0.229501
vt 0.268801 0.229501
vt 0.166725 0.334233
vt 0.166729 0.344807
vt 0.152552 0.344813
vt 0.166725 0.334233
vt 0.152552 0.344813
vt 0.152548 0.334238
vt 0.287073 0.291887
vt 0.290765 0.291887
vt 0.290765 0.288194
vt 0.287073 0.291887
vt 0.290765 0.288194
vt 0.287073 0.288194
vt 0.107014 0.361704
vt 0.107014 0.362707
vt 0.098541 0.362707
vt 0.107014 0.361704
vt 0.098541 0.362707
vt 0.098541 0.361704
vt 0.112130 0.380018
vt 0.112130 0.381254
vt 0.098128 0.381254
vt 0.112130 0.380018
vt 0.098128 0.381254
vt 0.098128 0.380018
vt 0.287267 0.280570
vt 0.290456 0.280570
vt 0.290456 0.277381
vt 0.287267 0.280570
vt 0.290456 0.277381
vt 0.287267 0.277381
vt 0.269169 0.252033
vt 0.279566 0.252033
vt 0.279566 0.241636
vt 0.269169 0.252033
vt 0.279566 0.241636
vt 0.269169 0.241636
vt 0.152748 0.359759
vt 0.152744 0.349419
vt 0.166606 0.349413
vt 0.152748 0.359759
vt 0.166606 0.349413
vt 0.166610 0.359753
vt 0.293645 0.299920
vt 0.305885 0.299915
vt 0.305885 0.299915
vt 0.293645 0.299920
vt 0.305885 0.299915
vt 0.293645 0.299920
vt 0.134859 0.366712
vt 0.098403 0.366712
vt 0.098403 0.365400
vt 0.134859 0.366712
vt 0.098403 0.365400
vt 0.134859 0.365400
vt 0.112267 0.386191
vt 0.098063 0.386191
vt 0.098063 0.384573
vt 0.112267 0.386191
vt 0.098063 0.384573
vt 0.112267 0.384573
vt 0.293641 0.288239
vt 0.293645 0.299920
vt 0.293645 0.299920
vt 0.293641 0.288239
vt 0.293645 0.299920
vt 0.293641 0.288239
vt 0.164786 0.399608
vt 0.153395 0.399612
vt 0.153381 0.363579
vt 0.164786 0.399608
vt 0.153381 0.363579
vt 0.164773 0.363574
vt 0.305880 0.288234
vt 0.293641 0.288239
vt 0.293645 0.299920
vt 0.305880 0.288234
vt 0.293645 0.299920
vt 0.305885 0.299915
vt 0.305865 0.249517
vt 0.293626 0.249522
vt 0.293641 0.288239
vt 0.305865 0.249517
vt 0.293641 0.288239
vt 0.305880 0.288234
vt 0.164791 0.410479
vt 0.153399 0.410484
vt 0.153395 0.399612
vt 0.164791 0.410479
vt 0.153395 0.399612
vt 0.164786 0.399608
vt 0.293626 0.249522
vt 0.293641 0.288239
vt 0.293641 0.288239
vt 0.293626 0.249522
vt 0.293641 0.288239
vt 0.293626 0.249522
vt 0.112285 0.384573
vt 0.142509 0.384573
vt 0.142509 0.386191
vt 0.112285 0.384573
vt 0.142509 0.386191
vt 0.112285 0.386191
vt 0.145848 0.366712
vt 0.134849 0.366712
vt 0.134849 0.365400
vt 0.145848 0.366712
vt 0.134849 0.365400
vt 0.145848 0.365400
vt 0.164786 0.399608
vt 0.189025 0.399598
vt 0.189029 0.410470
vt 0.164786 0.399608
vt 0.189029 0.410470
vt 0.164791 0.410479
vt 0.305885 0.299915
vt 0.331929 0.299905
vt 0.331924 0.288224
vt 0.305885 0.299915
vt 0.331924 0.288224
vt 0.305880 0.288234
vt 0.305885 0.299915
vt 0.331929 0.299905
vt 0.331929 0.299905
vt 0.305885 0.299915
vt 0.331929 0.299905
vt 0.305885 0.299915
vt 0.032423 0.396690
vt 0.046570 0.396684
vt 0.046570 0.396684
vt 0.032423 0.396690
vt 0.046570 0.396684
vt 0.032423 0.396690
vt 0.032418 0.383189
vt 0.032423 0.396690
vt 0.032423 0.396690
vt 0.032418 0.383189
vt 0.032423 0.396690
vt 0.032418 0.383189
vt 0.046565 0.383183
vt 0.032418 0.383189
vt 0.032423 0.396690
vt 0.046565 0.383183
vt 0.032423 0.396690
vt 0.046570 0.396684
vt 0.046570 0.413910
vt 0.032423 0.413915
vt 0.032418 0.400414
vt 0.046570 0.413910
vt 0.032418 0.400414
vt 0.046565 0.400409
vt 0.046804 0.379318
vt 0.076751 0.379318
vt 0.076751 0.380920
vt 0.046804 0.379318
vt 0.076751 0.380920
vt 0.046804 0.380920
vt 0.046385 0.377801
vt 0.033093 0.377801
vt 0.033093 0.376215
vt 0.046385 0.377801
vt 0.033093 0.376215
vt 0.046385 0.376215
vt 0.046565 0.400409
vt 0.076667 0.400397
vt 0.076672 0.413898
vt 0.046565 0.400409
vt 0.076672 0.413898
vt 0.046570 0.413910
vt 0.046570 0.396684
vt 0.076672 0.396673
vt 0.076667 0.383172
vt 0.046570 0.396684
vt 0.076667 0.383172
vt 0.046565 0.383183
vt 0.046570 0.396684
vt 0.076672 0.396673
vt 0.076672 0.396673
vt 0.046570 0.396684
vt 0.076672 0.396673
vt 0.046570 0.396684
vt 0.032730 0.379318
vt 0.046804 0.380920
vt 0.032730 0.380920
vt 0.032730 0.379318
vt 0.046804 0.379318
vt 0.046804 0.380920
vt 0.032507 0.316273
vt 0.046716 0.316267
vt 0.046716 0.316267
vt 0.032507 0.316273
vt 0.046716 0.316267
vt 0.032507 0.316273
vt 0.032502 0.302712
vt 0.032507 0.316273
vt 0.032507 0.316273
vt 0.032502 0.302712
vt 0.032507 0.316273
vt 0.032502 0.302712
vt 0.046711 0.302706
vt 0.032502 0.302712
vt 0.032507 0.316273
vt 0.046711 0.302706
vt 0.032507 0.316273
vt 0.046716 0.316267
vt 0.164791 0.410479
vt 0.153399 0.410484
vt 0.153395 0.399612
vt 0.164791 0.410479
vt 0.153395 0.399612
vt 0.164786 0.399608
vt 0.046995 0.297901
vt 0.076912 0.297901
vt 0.076912 0.299502
vt 0.046995 0.297901
vt 0.076912 0.299502
vt 0.046995 0.299502
vt 0.046702 0.294728
vt 0.033024 0.294728
vt 0.033024 0.293096
vt 0.046702 0.294728
vt 0.033024 0.293096
vt 0.046702 0.293096
vt 0.164786 0.399608
vt 0.189025 0.399598
vt 0.189029 0.410470
vt 0.164786 0.399608
vt 0.189029 0.410470
vt 0.164791 0.410479
vt 0.046716 0.316267
vt 0.076951 0.316256
vt 0.076946 0.302695
vt 0.046716 0.316267
vt 0.076946 0.302695
vt 0.046711 0.302706
vt 0.046716 0.316267
vt 0.076951 0.316256
vt 0.076951 0.316256
vt 0.046716 0.316267
vt 0.076951 0.316256
vt 0.046716 0.316267
vt 0.032935 0.297901
vt 0.046995 0.299502
vt 0.032935 0.299502
vt 0.032935 0.297901
vt 0.046995 0.297901
vt 0.046995 0.299502
vt 0.324375 0.277206
vt 0.324375 0.280073
vt 0.324375 0.280073
vt 0.324375 0.277206
vt 0.324375 0.280073
vt 0.324375 0.277206
vt 0.335803 0.277206
vt 0.324375 0.277206
vt 0.324375 0.277206
vt 0.335803 0.277206
vt 0.324375 0.277206
vt 0.335804 0.277206
vt 0.097586 0.393356
vt 0.097586 0.390483
vt 0.111363 0.390483
vt 0.097586 0.393356
vt 0.111363 0.390483
vt 0.111363 0.393356
vt 0.115551 0.393757
vt 0.115551 0.390877
vt 0.129364 0.390877
vt 0.115551 0.393757
vt 0.129364 0.390877
vt 0.129364 0.393757
vt 0.096111 0.392768
vt 0.096111 0.398514
vt 0.095218 0.398514
vt 0.096111 0.392768
vt 0.095218 0.398514
vt 0.095218 0.392768
vt 0.324375 0.286174
vt 0.335803 0.286174
vt 0.335804 0.286174
vt 0.324375 0.286174
vt 0.335804 0.286174
vt 0.324375 0.286174
vt 0.129364 0.393757
vt 0.129364 0.399884
vt 0.115551 0.399884
vt 0.129364 0.393757
vt 0.115551 0.399884
vt 0.115551 0.393757
vt 0.111363 0.393356
vt 0.111363 0.399468
vt 0.097586 0.399468
vt 0.111363 0.393356
vt 0.097586 0.399468
vt 0.097586 0.393356
vt 0.324375 0.280073
vt 0.324375 0.286174
vt 0.324375 0.286174
vt 0.324375 0.280073
vt 0.324375 0.286174
vt 0.324375 0.280073
vt 0.096111 0.390068
vt 0.095218 0.392768
vt 0.095218 0.390068
vt 0.096111 0.390068
vt 0.096111 0.392768
vt 0.095218 0.392768
vt 0.310918 0.277484
vt 0.310918 0.280351
vt 0.310918 0.280351
vt 0.310918 0.277484
vt 0.310918 0.280351
vt 0.310918 0.277484
vt 0.322346 0.277484
vt 0.310918 0.277484
vt 0.310918 0.277484
vt 0.322346 0.277484
vt 0.310918 0.277484
vt 0.322347 0.277484
vt 0.097510 0.405011
vt 0.097510 0.402118
vt 0.111385 0.402118
vt 0.097510 0.405011
vt 0.111385 0.402118
vt 0.111385 0.405011
vt 0.114946 0.404926
vt 0.114946 0.401974
vt 0.129105 0.401974
vt 0.114946 0.404926
vt 0.129105 0.401974
vt 0.129105 0.404926
vt 0.095636 0.404885
vt 0.095636 0.411027
vt 0.094681 0.411027
vt 0.095636 0.404885
vt 0.094681 0.411027
vt 0.094681 0.404885
vt 0.310918 0.286451
vt 0.322346 0.286451
vt 0.322347 0.286451
vt 0.310918 0.286451
vt 0.322347 0.286451
vt 0.310918 0.286451
vt 0.129105 0.404926
vt 0.129105 0.411207
vt 0.114946 0.411207
vt 0.129105 0.404926
vt 0.114946 0.411207
vt 0.114946 0.404926
vt 0.111385 0.405011
vt 0.111385 0.411166
vt 0.097510 0.411166
vt 0.111385 0.405011
vt 0.097510 0.411166
vt 0.097510 0.405011
vt 0.310918 0.280351
vt 0.310918 0.286451
vt 0.310918 0.286451
vt 0.310918 0.280351
vt 0.310918 0.286451
vt 0.310918 0.280351
vt 0.095636 0.401998
vt 0.094681 0.404885
vt 0.094681 0.401998
vt 0.095636 0.401998
vt 0.095636 0.404885
vt 0.094681 0.404885
vn 0.0004 0.0000 -1.0000
vn 1.0000 0.0000 0.0004
vn -0.0004 0.0000 1.0000
vn -1.0000 0.0000 -0.0004
vn 0.0000 -1.0000 -0.0000
vn 0.0000 1.0000 0.0000
usemtl Material_14
s off
f 1/1/1 2/2/1 3/3/1
f 4/4/1 5/5/1 6/6/1
f 7/7/2 8/8/2 9/9/2
f 10/10/2 11/11/2 12/12/2
f 13/13/3 14/14/3 15/15/3
f 16/16/3 17/17/3 18/18/3
f 19/19/4 20/20/4 21/21/4
f 22/22/4 23/23/4 24/24/4
f 25/25/5 26/26/5 27/27/5
f 28/28/5 29/29/5 30/30/5
f 31/31/6 32/32/6 33/33/6
f 34/34/6 35/35/6 36/36/6
usemtl Material_15
f 37/37/1 38/38/1 39/39/1
f 40/40/1 41/41/1 42/42/1
f 43/43/2 44/44/2 45/45/2
f 46/46/2 47/47/2 48/48/2
f 49/49/3 50/50/3 51/51/3
f 52/52/3 53/53/3 54/54/3
f 55/55/4 56/56/4 57/57/4
f 58/58/4 59/59/4 60/60/4
f 61/61/5 62/62/5 63/63/5
f 64/64/5 65/65/5 66/66/5
f 67/67/6 68/68/6 69/69/6
f 70/70/6 71/71/6 72/72/6
usemtl Material_5
f 73/73/1 74/74/1 75/75/1
f 76/76/1 77/77/1 78/78/1
f 79/79/2 80/80/2 81/81/2
f 82/82/2 83/83/2 84/84/2
f 85/85/3 86/86/3 87/87/3
f 88/88/3 89/89/3 90/90/3
f 91/91/4 92/92/4 93/93/4
f 94/94/4 95/95/4 96/96/4
f 97/97/6 98/98/6 99/99/6
f 100/100/6 101/101/6 102/102/6
f 103/103/5 104/104/5 105/105/5
f 106/106/5 107/107/5 108/108/5
f 109/109/5 110/110/5 111/111/5
f 112/112/5 113/113/5 114/114/5
f 115/115/6 116/116/6 117/117/6
f 118/118/6 119/119/6 120/120/6
f 121/121/4 122/122/4 123/123/4
f 124/124/4 125/125/4 126/126/4
f 127/127/3 128/128/3 129/129/3
f 130/130/3 131/131/3 132/132/3
f 133/133/2 134/134/2 135/135/2
f 136/136/2 137/137/2 138/138/2
f 139/139/6 140/140/6 141/141/6
f 142/142/6 143/143/6 144/144/6
f 145/145/5 146/146/5 147/147/5
f 148/148/5 149/149/5 150/150/5
f 151/151/1 152/152/1 153/153/1
f 154/154/1 155/155/1 156/156/1
usemtl Material_21
f 337/157/1 338/158/1 339/159/1
f 340/160/1 341/161/1 342/162/1
f 343/163/4 344/164/4 345/165/4
f 346/166/4 347/167/4 348/168/4
f 349/169/5 350/170/5 351/171/5
f 352/172/5 353/173/5 354/174/5
f 355/175/6 356/176/6 357/177/6
f 358/178/6 359/179/6 360/180/6
f 361/181/3 362/182/3 363/183/3
f 364/184/3 365/185/3 366/186/3
f 367/187/2 368/188/2 369/189/2
f 370/190/2 371/191/2 372/192/2
f 373/193/6 374/194/6 375/195/6
f 376/196/6 377/197/6 378/198/6
f 379/199/5 380/200/5 381/201/5
f 382/202/5 383/203/5 384/204/5
f 385/205/1 386/206/1 387/207/1
f 388/208/1 389/209/1 390/210/1
f 391/211/3 392/212/3 393/213/3
f 394/214/3 395/215/3 396/216/3
usemtl Material_22
f 157/217/1 158/218/1 159/219/1
f 160/220/1 161/221/1 162/222/1
f 163/223/4 164/224/4 165/225/4
f 166/226/4 167/227/4 168/228/4
f 169/229/5 170/230/5 171/231/5
f 172/232/5 173/233/5 174/234/5
f 175/235/6 176/236/6 177/237/6
f 178/238/6 179/239/6 180/240/6
f 181/241/3 182/242/3 183/243/3
f 184/244/3 185/245/3 186/246/3
f 187/247/2 188/248/2 189/249/2
f 190/250/2 191/251/2 192/252/2
f 193/253/6 194/254/6 195/255/6
f 196/256/6 197/257/6 198/258/6
f 199/259/5 200/260/5 201/261/5
f 202/262/5 203/263/5 204/264/5
f 205/265/1 206/266/1 207/267/1
f 208/268/1 209/269/1 210/270/1
f 211/271/3 212/272/3 213/273/3
f 214/274/3 215/275/3 216/276/3
usemtl Material_23
f 217/277/1 218/278/1 219/279/1
f 220/280/1 221/281/1 222/282/1
f 223/283/5 224/284/5 225/285/5
f 226/286/5 227/287/5 228/288/5
f 229/289/2 230/290/2 231/291/2
f 232/292/2 233/293/2 234/294/2
f 235/295/4 236/296/4 237/297/4
f 238/298/4 239/299/4 240/300/4
f 241/301/3 242/302/3 243/303/3
f 244/304/3 245/305/3 246/306/3
f 247/307/6 248/308/6 249/309/6
f 250/310/6 251/311/6 252/312/6
f 253/313/4 254/314/4 255/315/4
f 256/316/4 257/317/4 258/318/4
f 259/319/2 260/320/2 261/321/2
f 262/322/2 263/323/2 264/324/2
f 265/325/1 266/326/1 267/327/1
f 268/328/1 269/329/1 270/330/1
f 271/331/3 272/332/3 273/333/3
f 274/334/3 275/335/3 276/336/3
usemtl Material_24
f 277/337/1 278/338/1 279/339/1
f 280/340/1 281/341/1 282/342/1
f 283/343/5 284/344/5 285/345/5
f 286/346/5 287/347/5 288/348/5
f 289/349/2 290/350/2 291/351/2
f 292/352/2 293/353/2 294/354/2
f 295/355/4 296/356/4 297/357/4
f 298/358/4 299/359/4 300/360/4
f 301/361/3 302/362/3 303/363/3
f 304/364/3 305/365/3 306/366/3
f 307/367/6 308/368/6 309/369/6
f 310/370/6 311/371/6 312/372/6
f 313/373/4 314/374/4 315/375/4
f 316/376/4 317/377/4 318/378/4
f 319/379/2 320/380/2 321/381/2
f 322/382/2 323/383/2 324/384/2
f 325/385/1 326/386/1 327/387/1
f 328/388/1 329/389/1 330/390/1
f 331/391/3 332/392/3 333/393/3
f 334/394/3 335/395/3 336/396/3
